<svg xmlns="http://www.w3.org/2000/svg" viewBox="0 0 13.555 10.808">
  <g id="Group_486" data-name="Group 486" transform="translate(765.555 1324.808) rotate(180)">
    <g id="next" transform="translate(767.609 1324.808) rotate(180)">
      <g id="Group_425" data-name="Group 425" transform="translate(9.055 0)">
        <path id="Path_328" data-name="Path 328" d="M10.394,10.807a1.339,1.339,0,0,1-.971-2.262l3-3.151L9.427,2.265A1.339,1.339,0,0,1,11.362.413l3.876,4.052a1.34,1.34,0,0,1,0,1.849l-3.876,4.077A1.338,1.338,0,0,1,10.394,10.807Z" transform="translate(-9.055 0)"/>
      </g>
    </g>
    <g id="next-2" data-name="next" transform="translate(774.609 1324.808) rotate(180)">
      <g id="Group_425-2" data-name="Group 425" transform="translate(9.055 0)">
        <path id="Path_328-2" data-name="Path 328" d="M10.394,10.807a1.339,1.339,0,0,1-.971-2.262l3-3.151L9.427,2.265A1.339,1.339,0,0,1,11.362.413l3.876,4.052a1.34,1.34,0,0,1,0,1.849l-3.876,4.077A1.338,1.338,0,0,1,10.394,10.807Z" transform="translate(-9.055 0)"/>
      </g>
    </g>
  </g>
</svg>
